<svg xmlns="http://www.w3.org/2000/svg" viewBox="0 0 512 512">
  <defs>
    <linearGradient id="bagel-gradient" x1="0%" y1="0%" x2="100%" y2="100%">
      <stop offset="0%" style="stop-color:#FDB813;stop-opacity:1" />
      <stop offset="100%" style="stop-color:#F59E0B;stop-opacity:1" />
    </linearGradient>
  </defs>
  <!-- Background Circle -->
  <circle cx="256" cy="256" r="250" fill="white" stroke="#FDB813" stroke-width="12"/>
  <!-- Bagel Shape -->
  <path d="M256,96 C367.4,96 456,184.6 456,296 C456,407.4 367.4,496 256,496 C144.6,496 56,407.4 56,296 C56,184.6 144.6,96 256,96 Z M256,206 C205.1,206 163.3,247.8 163.3,299 C163.3,350.2 205.1,392 256,392 C306.9,392 348.7,350.2 348.7,299 C348.7,247.8 306.9,206 256,206 Z" fill="url(#bagel-gradient)"/>
  <!-- Center Hole -->
  <circle cx="256" cy="299" r="93" fill="white"/>
  <!-- Text NY -->
  <text x="256" y="315" font-family="Arial, sans-serif" font-size="72" font-weight="bold" text-anchor="middle" fill="#8B4513">NY</text>
</svg>